<?xml version="1.0" encoding="utf-8"?>
<!-- Generator: Adobe Illustrator 18.0.0, SVG Export Plug-In . SVG Version: 6.00 Build 0)  -->
<!DOCTYPE svg PUBLIC "-//W3C//DTD SVG 1.1//EN" "http://www.w3.org/Graphics/SVG/1.1/DTD/svg11.dtd">
<svg version="1.1" id="Layer_1" xmlns="http://www.w3.org/2000/svg" xmlns:xlink="http://www.w3.org/1999/xlink" x="0px" y="0px"
	 viewBox="0 0 1280 800" enable-background="new 0 0 1280 800" xml:space="preserve">
<g>
	<path d="M6.3,199.7l37-173.5h36.2l-37,173.5H6.3z"/>
	<path d="M181.4,155.9c0,14.9-4.9,26.3-14.8,34.2c-9.8,8-23.6,11.9-41.1,11.9c-8.5,0-15.8-0.6-22.1-1.8c-6.3-1.2-12.2-3.2-17.6-5.9
		v-29.4c12.4,7.1,25,10.7,37.9,10.7c6.3,0,11.5-1.3,15.5-3.9c4-2.6,6.1-6.1,6.1-10.5c0-3.4-1.5-6.4-4.4-9.1
		c-2.9-2.7-8.1-6.1-15.5-10.2c-9.6-5.4-16.3-10.7-20.1-16.1c-3.8-5.3-5.7-11.6-5.7-18.9c0-13.4,4.4-23.9,13.1-31.3
		c8.7-7.4,21.2-11.1,37.4-11.1c15.9,0,30.3,3.8,43.1,11.3l-11.7,25.5c-11.1-6.6-21.3-10-30.6-10c-4.5,0-8.1,1-10.9,3
		c-2.8,2-4.2,4.7-4.2,8.1c0,3.1,1.3,5.8,3.8,8.1c2.5,2.3,7.3,5.3,14.2,8.8c9.7,5,16.8,10.4,21.1,16.3
		C179.2,141.6,181.4,148.3,181.4,155.9z"/>
	<path d="M331.9,173.2c5.1,0,11.5-1.4,19.2-4.2v26.7c-8.8,4.2-19.3,6.3-31.6,6.3c-11.9,0-20.6-2.5-26.2-7.5
		c-5.6-5-8.4-12.7-8.4-23.1c0-4,0.5-8.4,1.4-13.3l13.6-64h-18l3.4-17.4l23.3-10l15.7-28h23L341.6,67h33.6l-5.9,27.2h-33.5l-13.6,64
		c-0.5,2.4-0.7,4.5-0.7,6.3C321.4,170.3,324.9,173.2,331.9,173.2z"/>
	<path d="M491.3,199.7h-35.7l16.3-77.5c1.3-5.4,1.9-10.1,1.9-14.1c0-9.7-4.3-14.6-12.8-14.6c-7.3,0-13.9,4.5-19.8,13.5
		s-10.6,21.6-14,37.7l-11.6,54.9h-35.7l39.2-184.6h35.7c-3.1,14.3-5.5,25.3-7.1,33c-1.7,7.7-5.1,19.9-10.2,36.7h0.9
		c4.9-6.1,10.4-11,16.4-14.7c6-3.7,13-5.5,20.9-5.5c10.9,0,19.4,3.3,25.3,9.9c6,6.6,9,16,9,28.3c0,5.8-0.9,12.9-2.7,21.4
		L491.3,199.7z"/>
	<path d="M590.2,202.1c-16.6,0-29.5-4.5-38.7-13.4c-9.2-8.9-13.8-21.6-13.8-37.9c0-16.4,3.3-31.3,9.8-44.8
		c6.5-13.5,15.4-23.8,26.5-30.8c11.2-7.1,23.8-10.6,37.9-10.6c14,0,24.9,3.2,32.7,9.7c7.8,6.4,11.7,15.3,11.7,26.5
		c0,14.8-6.6,26.2-19.8,34.2c-13.2,8-32.1,12-56.6,12h-6.1l-0.2,2.5v2.4c0,7.2,2,12.9,6.1,17c4.1,4.2,9.9,6.2,17.5,6.2
		c6.9,0,13.1-0.8,18.7-2.3c5.6-1.5,12.4-4.2,20.4-7.9v26.9C622.8,198.7,607.4,202.1,590.2,202.1z M609.6,90.3
		c-7,0-13.5,3.2-19.7,9.5c-6.2,6.3-10.2,14-12.1,23.1h5.3c12.3,0,21.8-1.9,28.7-5.8c6.8-3.8,10.3-9,10.3-15.6
		C622.1,94,617.9,90.3,609.6,90.3z"/>
	<path d="M767.2,64.5c4.7,0,8.5,0.4,11.4,1.3l-7.8,34.4c-3.6-1.3-7.5-1.9-11.9-1.9c-9.2,0-17.2,3.6-24.1,10.9
		c-6.9,7.2-11.8,17.6-14.8,31.1l-12.6,59.3h-35.7L699.8,67h27.3l-2.5,24.6h0.7C736.9,73.6,750.9,64.5,767.2,64.5z"/>
	<path d="M837.5,202.1c-16.6,0-29.5-4.5-38.7-13.4c-9.2-8.9-13.8-21.6-13.8-37.9c0-16.4,3.3-31.3,9.8-44.8
		c6.5-13.5,15.4-23.8,26.5-30.8c11.2-7.1,23.8-10.6,37.8-10.6c14,0,24.9,3.2,32.7,9.7c7.8,6.4,11.7,15.3,11.7,26.5
		c0,14.8-6.6,26.2-19.8,34.2c-13.2,8-32.1,12-56.6,12h-6.1l-0.2,2.5v2.4c0,7.2,2,12.9,6.1,17c4.1,4.2,9.9,6.2,17.5,6.2
		c6.9,0,13.1-0.8,18.7-2.3c5.6-1.5,12.4-4.2,20.4-7.9v26.9C870.2,198.7,854.8,202.1,837.5,202.1z M857,90.3c-7,0-13.5,3.2-19.7,9.5
		c-6.2,6.3-10.2,14-12.1,23.1h5.3c12.3,0,21.8-1.9,28.7-5.8c6.8-3.8,10.3-9,10.3-15.6C869.5,94,865.3,90.3,857,90.3z"/>
	<path d="M40.1,491.3H4.4l39.2-184.6h35.7L40.1,491.3z"/>
	<path d="M117.1,491.3H81.4l28.1-132.7h35.7L117.1,491.3z M115.2,327.5c0-6.9,1.9-12.1,5.6-15.6c3.8-3.5,9.1-5.3,16-5.3
		c5.8,0,10.2,1.2,13.2,3.7c3,2.5,4.5,6,4.5,10.6c0,6.3-1.7,11.5-5.2,15.4c-3.5,3.9-8.9,5.9-16.1,5.9
		C121.2,342.1,115.2,337.3,115.2,327.5z"/>
	<path d="M148.7,549.7c-8.2,0-15.1-1-20.6-3V518c4.8,1.7,9.4,2.5,13.6,2.5c4.8,0,9.1-1.6,12.7-4.7c3.6-3.2,6.2-8.3,7.7-15.4
		l24.2-114.5h-19.3l3.6-17.2l21.7-10l2.1-10c3.2-15,8.7-26,16.4-32.9c7.7-6.9,18.5-10.4,32.5-10.4c10.4,0,19.7,1.9,27.9,5.8
		l-9.5,26.6c-5.5-2.5-10.7-3.7-15.8-3.7c-4.5,0-8.1,1.6-10.9,4.7c-2.8,3.2-4.6,7.3-5.6,12.5l-1.4,7.4h26l-5.8,27.2H222l-25.5,119.8
		C190.4,535,174.4,549.7,148.7,549.7z"/>
	<path d="M312.6,493.7c-16.6,0-29.5-4.5-38.7-13.4c-9.2-8.9-13.8-21.6-13.8-37.8c0-16.4,3.3-31.3,9.8-44.8
		c6.5-13.5,15.4-23.8,26.5-30.8c11.2-7.1,23.8-10.6,37.9-10.6c14,0,24.9,3.2,32.7,9.7c7.8,6.4,11.7,15.3,11.7,26.5
		c0,14.8-6.6,26.2-19.8,34.2c-13.2,8-32.1,12-56.6,12h-6.1l-0.2,2.5v2.4c0,7.2,2,12.9,6.1,17c4.1,4.2,9.9,6.2,17.5,6.2
		c6.9,0,13.1-0.8,18.7-2.3c5.6-1.5,12.4-4.2,20.4-8v26.9C345.3,490.3,329.9,493.7,312.6,493.7z M332.1,381.9c-7,0-13.5,3.2-19.7,9.5
		c-6.2,6.3-10.2,14-12.1,23.1h5.3c12.3,0,21.8-1.9,28.7-5.8c6.8-3.8,10.3-9,10.3-15.6C344.6,385.6,340.4,381.9,332.1,381.9z"/>
	<path d="M589.2,408.7c0,16.7-2.8,31.5-8.4,44.4c-5.6,12.9-13.6,22.9-24.1,30c-10.5,7.1-23,10.6-37.5,10.6c-15.4,0-27.7-4.6-37-13.9
		c-9.2-9.3-13.8-21.7-13.8-37.1c0-16.8,2.8-31.9,8.5-45c5.7-13.2,13.8-23.4,24.5-30.6c10.7-7.2,23.2-10.9,37.5-10.9
		c15.5,0,27.8,4.7,36.8,14C584.7,379.5,589.2,392.3,589.2,408.7z M553.3,408.7c0-15.6-5.7-23.4-17-23.4c-5.9,0-11.3,2.4-16,7.2
		c-4.7,4.8-8.5,11.9-11.5,21.2c-3,9.3-4.4,18.9-4.4,28.8c0,14.6,5.9,22,17.8,22c5.9,0,11.3-2.4,16-7.3c4.7-4.9,8.4-11.6,11.1-20.3
		C551.9,428.3,553.3,418.9,553.3,408.7z"/>
	<path d="M720.7,491.3H685l16.3-77.5c1.3-5.4,1.9-10.1,1.9-14.1c0-9.7-4.3-14.6-12.8-14.6c-7.3,0-13.9,4.5-19.8,13.5
		c-5.9,9-10.6,21.6-14,37.7l-11.6,54.9h-35.7l28.1-132.7h27.3l-2.5,24.6h0.7c11.5-18,25.6-27.1,42.1-27.1c10.9,0,19.4,3.3,25.3,9.9
		c6,6.6,9,16,9,28.3c0,5.8-0.9,12.9-2.7,21.4L720.7,491.3z"/>
	<path d="M99.4,739.1l65.4-129.7H215l-36.7,173.5h-33.2l17.2-82.1c4.2-19.5,8.3-37,12.5-52.3h-0.6l-67.5,134.4H73.3l-7.2-134.4h-0.5
		c-0.9,7-2.4,16.1-4.5,27.4c-2.1,11.3-9.5,47-22.2,107H6.3L43,609.4h47.9L99,739.1H99.4z"/>
	<path d="M266.8,785.3c-11.6,0-20.8-4.2-27.5-12.6c-6.7-8.4-10-20.2-10-35.4c0-15.7,2.8-30.6,8.5-44.8c5.7-14.2,13.2-25.2,22.4-33
		c9.3-7.8,19.4-11.7,30.5-11.7c7.7,0,14.3,1.7,19.9,5c5.6,3.3,9.9,8.1,13,14.5h0.9l6.8-17h27.5l-28.2,132.7h-27.2l1.7-17.2h-0.5
		C294.1,778.7,281.5,785.3,266.8,785.3z M280.8,756.4c5.5,0,10.7-2.6,15.8-8c5.1-5.3,9.1-12.5,12.2-21.5c3.1-9.1,4.6-19.3,4.6-30.8
		c0-5.6-1.5-10.3-4.6-13.9c-3-3.7-7.1-5.5-12-5.5c-5.4,0-10.5,2.8-15.4,8.5c-4.9,5.7-8.7,13.2-11.6,22.5c-2.9,9.3-4.3,18.6-4.3,27.8
		c0,7,1.3,12.2,4,15.7C272.2,754.7,275.9,756.4,280.8,756.4z"/>
	<path d="M467.8,647.7c4.7,0,8.5,0.4,11.4,1.3l-7.8,34.4c-3.6-1.3-7.5-1.9-11.9-1.9c-9.2,0-17.2,3.6-24.1,10.9
		c-6.9,7.2-11.8,17.6-14.8,31.1L408,782.9h-35.7l28.1-132.7h27.3l-2.5,24.6h0.7C437.6,656.8,451.5,647.7,467.8,647.7z"/>
	<path d="M573.4,739.1c0,14.9-4.9,26.3-14.8,34.2c-9.8,8-23.6,11.9-41.1,11.9c-8.5,0-15.8-0.6-22.1-1.8c-6.3-1.2-12.2-3.2-17.6-5.9
		v-29.4c12.4,7.1,25,10.7,37.9,10.7c6.3,0,11.5-1.3,15.5-3.9c4-2.6,6.1-6.1,6.1-10.5c0-3.4-1.5-6.4-4.4-9.1
		c-2.9-2.7-8.1-6.1-15.5-10.2c-9.6-5.4-16.3-10.7-20.1-16.1c-3.8-5.3-5.7-11.6-5.7-18.9c0-13.4,4.4-23.9,13.1-31.3
		c8.7-7.4,21.2-11.1,37.4-11.1c15.9,0,30.3,3.8,43.1,11.3l-11.7,25.5c-11.1-6.6-21.3-10-30.6-10c-4.5,0-8.1,1-10.9,3
		c-2.8,2-4.2,4.7-4.2,8.1c0,3.1,1.3,5.8,3.8,8.1c2.5,2.3,7.3,5.3,14.2,8.8c9.7,5,16.8,10.4,21.1,16.3
		C571.3,724.8,573.4,731.5,573.4,739.1z"/>
	<path d="M614.6,769.2c0-7.2,2.2-12.9,6.5-17.1c4.3-4.2,10.3-6.3,17.8-6.3c5.4,0,9.7,1.5,12.9,4.5c3.2,3,4.8,7.2,4.8,12.7
		c0,6.9-2.2,12.5-6.5,16.7c-4.4,4.3-10,6.4-17,6.4c-5.9,0-10.4-1.5-13.6-4.5C616.2,778.6,614.6,774.5,614.6,769.2z M625.8,725.3
		l1.7-9.3c1.5-8.1,4.4-15.1,8.7-21c4.3-5.9,11.1-12,20.5-18.4c9.8-6.6,16-11.7,18.7-15.1c2.6-3.4,4-7.2,4-11.4
		c0-9.4-5.3-14.1-15.8-14.1c-4,0-8.2,0.6-12.6,1.9c-4.5,1.3-12.4,4.6-23.9,10L616,621.7c18.2-9.9,35.8-14.8,52.8-14.8
		c14,0,25.1,3.5,33.2,10.4c8.1,6.9,12.2,16.6,12.2,29c0,6.6-1.1,12.5-3.4,17.7c-2.3,5.3-5.5,10.1-9.8,14.6
		c-4.3,4.5-11.8,10.3-22.5,17.5c-5.1,3.4-8.9,6.3-11.5,8.7s-4.6,4.9-6.2,7.7c-1.6,2.7-3.1,7-4.5,12.9H625.8z"/>
</g>
</svg>
