<?xml version="1.0" encoding="utf-8"?>
<!-- Generator: Adobe Illustrator 18.0.0, SVG Export Plug-In . SVG Version: 6.00 Build 0)  -->
<!DOCTYPE svg PUBLIC "-//W3C//DTD SVG 1.1//EN" "http://www.w3.org/Graphics/SVG/1.1/DTD/svg11.dtd">
<svg version="1.1" id="Layer_1" xmlns="http://www.w3.org/2000/svg" xmlns:xlink="http://www.w3.org/1999/xlink" x="0px" y="0px"
	 viewBox="0 0 1280 800" enable-background="new 0 0 1280 800" xml:space="preserve">
<g>
	<path d="M17,195.3V25.2h43.3v170.1H17z"/>
	<path d="M199.7,77.2l-14.3,27.2c-15.8-8.5-30.4-13.1-41.3-13.1c-7.5,0-12.9,2.9-12.9,9c0,18,69,9.2,68.8,54.9
		c0,27-23.6,41.8-55.2,41.8c-21.9,0-43-6.3-58.8-18.5l13.4-26.7c14.8,10.4,31.8,16.3,46.4,16.3c8.3,0,14.3-2.9,14.3-9
		c0-19.2-67.8-9.2-67.6-55.2c0-27,22.8-41.6,53.2-41.6C164.8,62.4,183.7,67.7,199.7,77.2z"/>
	<path d="M374.2,188.3c-9.5,5.6-22.4,9-35,9c-25.3,0-43.5-14.3-43.5-41.6V97.9h-18.2V70.4h18.2V34h41.8v36.2h34.3v27.7h-34.3v51.3
		c0,10.2,4.4,14.6,12.1,14.3c4.4,0,10-1.7,16.3-4.4L374.2,188.3z"/>
	<path d="M535.3,112.7v82.6h-42v-71c0-15.3-8.7-24.8-23.1-24.8c-16.5,0-26.7,13.1-26.7,31.1v64.6h-42V15h42v71
		c9.2-15.6,24.5-23.3,44-23.6C516.4,62.4,535.3,82.1,535.3,112.7z"/>
	<path d="M693.3,141.1h-92.1c4.1,15.6,15.3,24.3,30.9,24.3c11.4,0,22.6-4.6,31.3-13.4l22.1,21.6c-13.4,14.6-33,23.1-57.1,23.1
		c-42.8,0-69.5-26.7-69.5-66.6c0-40.6,27.7-67.3,68.3-67.3C673.3,62.9,696.2,93.2,693.3,141.1z M652.9,118.5
		c0-16-10.2-26.5-25.3-26.5c-14.6,0-24.5,10.7-27.2,26.5H652.9z"/>
	<path d="M763,86.4c9-15.3,23.8-23.8,42.5-24.1v37.9c-24.3-2.2-40.3,9.2-42.5,27.7v67.3h-42v-131h42V86.4z"/>
	<path d="M953,141.1h-92.1c4.1,15.6,15.3,24.3,30.9,24.3c11.4,0,22.6-4.6,31.3-13.4l22.1,21.6c-13.4,14.6-33,23.1-57.1,23.1
		c-42.8,0-69.5-26.7-69.5-66.6c0-40.6,27.7-67.3,68.3-67.3C933.1,62.9,955.9,93.2,953,141.1z M912.7,118.5c0-16-10.2-26.5-25.3-26.5
		c-14.6,0-24.5,10.7-27.2,26.5H912.7z"/>
	<path d="M18,486.9V306.6h42v180.3H18z"/>
	<path d="M142.9,318.3c0,13.1-9.2,22.4-22.1,22.4c-12.9,0-22.1-9.2-22.1-22.4c0-12.9,9.2-22.1,22.1-22.1
		C133.6,296.2,142.9,305.4,142.9,318.3z M99.6,486.9v-131h41.8v131H99.6z"/>
	<path d="M229.4,352.3v9.5H259v27.7h-29.6v97.4h-41.6v-97.4h-17.7v-27.7h17.7v-12.1c0-28.9,21.9-45,50.1-45
		c12.9,0,26.7,3.4,36.7,9.2l-14.8,29.4c-4.6-3.4-10.4-5.3-15.3-5.3C235.9,337.7,229.4,342.6,229.4,352.3z"/>
	<path d="M399.7,432.7h-92.1c4.1,15.6,15.3,24.3,30.9,24.3c11.4,0,22.6-4.6,31.3-13.4l22.1,21.6c-13.4,14.6-33,23.1-57.1,23.1
		c-42.8,0-69.5-26.7-69.5-66.6c0-40.6,27.7-67.3,68.3-67.3C379.8,354.5,402.6,384.8,399.7,432.7z M359.4,410.1
		c0-16-10.2-26.5-25.3-26.5c-14.6,0-24.5,10.7-27.2,26.5H359.4z"/>
	<path d="M620.9,421.3c0,40.3-28.7,67.1-71.4,67.1c-43,0-71.7-26.7-71.7-67.1c0-40.3,28.7-66.8,71.7-66.8
		C592.2,354.5,620.9,381,620.9,421.3z M520,421.8c0,20.4,11.9,34,29.4,34c17.3,0,29.2-13.6,29.2-34c0-20.2-11.9-34-29.2-34
		C531.9,387.8,520,401.6,520,421.8z"/>
	<path d="M782,404.3v82.6h-41.8v-71c0-15.3-9-24.8-23.1-24.8c-15.3,0-25,10.9-26.7,26.5v69.3h-42v-131h42v21.4
		c9.2-15.3,24.3-23.1,43.7-23.3C763,354,782,373.7,782,404.3z"/>
	<path d="M165.7,778.5l-0.2-110.6l-40.8,93.6H96.5l-40.8-93.6v110.6H17V608.2h47.4l46.2,101.3l46.2-101.3h47.1v170.3H165.7z"/>
	<path d="M358.7,693v85.5h-41.1v-15.1c-8.5,11.2-22.4,17-40.1,17c-27.9,0-45-17-45-41.1c0-24.8,17.7-39.4,50.3-39.6h34.5v-1.9
		c0-12.9-8.5-20.7-25.5-20.7c-10.9,0-25.3,3.9-39.1,10.9l-11.9-27.7c20.4-9.5,38.9-14.8,60.7-14.8
		C337.5,645.6,358.4,663.3,358.7,693z M317.4,734v-11.7h-26.5c-12.6,0-19,4.4-19,14.1c0,9.5,6.8,15.6,18.5,15.6
		C303.5,752,314.7,744.7,317.4,734z"/>
	<path d="M435.5,669.6c9-15.3,23.8-23.8,42.5-24.1v37.9c-24.3-2.2-40.3,9.2-42.5,27.7v67.3h-42v-131h42V669.6z"/>
	<path d="M602.9,660.4l-14.3,27.2c-15.8-8.5-30.4-13.1-41.3-13.1c-7.5,0-12.9,2.9-12.9,9c0,18,69,9.2,68.8,54.9
		c0,27-23.6,41.8-55.2,41.8c-21.9,0-43-6.3-58.8-18.5l13.4-26.7c14.8,10.4,31.8,16.3,46.4,16.3c8.3,0,14.3-2.9,14.3-9
		c0-19.2-67.8-9.2-67.6-55.2c0-27,22.8-41.6,53.2-41.6C567.9,645.6,586.8,650.9,602.9,660.4z"/>
	<path d="M615.5,662.8c0.5-34.7,21.1-55.2,55.4-55.2c32.3,0,52.2,15.1,52.2,42.3c0,36.9-37.2,41.3-37.2,70.5h-31.3
		c0-37.7,29.9-39.6,29.9-63.7c0-10.9-6.6-15.8-17.5-15.8c-12.2,0-19,7-19.2,22.1L615.5,662.8z M690.1,760c0,12.1-8.5,20.4-20.4,20.4
		c-11.9,0-20.2-8.3-20.2-20.4c0-11.9,8.3-20.2,20.2-20.2C681.6,739.9,690.1,748.1,690.1,760z"/>
</g>
</svg>
